<?xml version="1.0" encoding="UTF-8"?>
<svg width="40px" height="40px" viewBox="0 0 40 40" version="1.1" xmlns="http://www.w3.org/2000/svg">
  <circle cx="20" cy="20" r="18" fill="#1a237e" stroke="#ffffff" stroke-width="2" />
  <circle cx="20" cy="20" r="8" fill="#ffffff" />
  <circle cx="20" cy="20" r="4" fill="#42a5f5" />
  <path d="M20,2 C10.0588745,2 2,10.0588745 2,20 C2,29.9411255 10.0588745,38 20,38 C29.9411255,38 38,29.9411255 38,20 C38,10.0588745 29.9411255,2 20,2 Z M20,6 C27.7319865,6 34,12.2680135 34,20 C34,27.7319865 27.7319865,34 20,34 C12.2680135,34 6,27.7319865 6,20 C6,12.2680135 12.2680135,6 20,6 Z" fill="#ffffff" fill-rule="nonzero" opacity="0.3" />
</svg>
